<?xml version="1.0" standalone="no"?>
<!DOCTYPE svg PUBLIC "-//W3C//DTD SVG 20010904//EN"
 "http://www.w3.org/TR/2001/REC-SVG-20010904/DTD/svg10.dtd">
<svg version="1.0" xmlns="http://www.w3.org/2000/svg"
 width="463.000000pt" height="430.000000pt" viewBox="0 0 463.000000 430.000000"
 preserveAspectRatio="xMidYMid meet">

<g transform="translate(0.000000,430.000000) scale(0.100000,-0.100000)"
fill="#000000" stroke="none">
<path d="M2757 4251 c-23 -21 -60 -48 -82 -59 -58 -29 -121 -101 -161 -185
-41 -87 -43 -120 -8 -143 40 -27 74 -10 102 51 46 97 83 145 127 166 24 11 60
35 81 53 34 28 43 32 69 24 17 -5 71 -6 120 -3 115 7 149 -7 185 -80 38 -76
35 -177 -7 -268 -40 -83 -112 -158 -211 -217 -80 -47 -99 -74 -80 -115 17 -38
52 -42 112 -13 133 66 231 165 295 298 35 73 36 78 36 190 0 111 -1 118 -33
183 -37 74 -88 120 -151 136 -20 5 -107 12 -194 15 l-158 5 -42 -38z"/>
<path d="M2000 4084 c-47 -10 -76 -12 -105 -5 -97 23 -245 -47 -245 -117 0
-31 26 -62 53 -62 10 0 42 14 73 31 53 30 58 31 107 20 42 -9 63 -8 107 4 112
30 160 16 250 -74 64 -64 81 -71 118 -45 48 34 10 117 -86 187 -93 69 -166 85
-272 61z"/>
<path d="M1185 4057 c-16 -8 -54 -35 -83 -60 -48 -40 -59 -45 -103 -45 -61 -1
-121 -33 -174 -94 -70 -81 -77 -136 -20 -158 34 -13 62 -2 85 35 12 19 37 47
56 64 29 26 43 31 85 31 59 0 88 14 160 75 64 54 107 59 185 20 58 -30 95 -32
117 -7 36 40 16 82 -56 119 -42 21 -69 27 -137 30 -57 2 -95 -1 -115 -10z"/>
<path d="M213 3918 c-52 -14 -119 -83 -160 -166 l-38 -76 1 -136 c1 -151 10
-189 70 -277 61 -88 148 -131 289 -141 133 -10 223 -2 241 22 18 25 18 57 0
81 -12 17 -28 19 -152 20 -132 0 -142 1 -197 28 -71 35 -100 76 -123 172 -28
123 -1 256 67 321 30 28 33 29 148 30 l119 1 73 -53 c41 -30 79 -54 85 -54 24
0 64 42 64 67 0 30 -54 83 -136 133 -54 32 -56 33 -188 34 -73 1 -146 -2 -163
-6z"/>
<path d="M2007 3522 c-38 -41 -10 -112 44 -112 30 0 43 9 58 37 33 64 -54 128
-102 75z"/>
<path d="M1660 3489 c-86 -34 -100 -116 -27 -159 43 -26 62 -79 54 -151 -13
-107 -61 -145 -197 -156 -72 -5 -83 -9 -97 -30 -21 -31 -8 -72 29 -92 61 -35
285 22 322 81 14 23 20 23 75 -4 39 -20 62 -23 151 -23 95 0 110 3 156 27 57
30 119 95 129 136 10 39 -23 77 -66 77 -27 0 -38 -7 -60 -40 -35 -51 -86 -74
-164 -75 -44 0 -71 6 -100 23 -38 22 -40 25 -42 77 -2 30 -8 80 -14 112 -10
48 -9 60 5 79 25 36 21 84 -10 108 -29 23 -99 28 -144 10z"/>
<path d="M2696 3448 c-34 -48 -4 -108 53 -108 41 0 73 -45 101 -140 12 -41 28
-82 36 -90 16 -19 44 -84 44 -103 0 -7 -18 -32 -40 -55 -57 -62 -71 -121 -49
-208 12 -45 12 -46 -29 -87 -22 -23 -49 -61 -61 -84 -22 -45 -28 -121 -11
-152 6 -13 4 -45 -6 -99 -8 -44 -18 -125 -22 -179 l-7 -98 -30 3 c-16 2 -76
15 -132 28 -120 29 -222 35 -246 15 -20 -16 -22 -70 -4 -95 9 -13 34 -20 83
-26 137 -15 481 -104 532 -138 33 -22 46 -50 31 -68 -7 -9 -9 -30 -6 -56 4
-30 0 -52 -13 -78 -25 -48 -105 -137 -151 -165 -21 -14 -39 -35 -43 -50 -14
-54 46 -101 95 -75 l22 12 -6 -177 c-5 -165 -4 -178 14 -196 24 -24 71 -25 92
-1 22 25 25 47 32 241 3 96 7 175 8 176 1 1 50 30 110 65 109 65 273 183 361
262 54 48 63 86 30 118 -42 40 -56 35 -156 -47 -93 -78 -204 -160 -243 -181
-20 -10 -21 -8 -17 51 2 48 -1 69 -16 92 -17 27 -17 32 -3 56 31 55 -26 122
-142 164 l-62 23 1 114 c0 63 3 122 7 132 6 14 19 7 85 -46 179 -147 340 -213
562 -234 l75 -6 115 -112 c63 -62 132 -125 153 -141 21 -15 34 -32 30 -36 -4
-4 -150 -51 -323 -103 -362 -109 -454 -140 -488 -162 -57 -37 -68 -145 -26
-259 14 -38 36 -99 50 -135 16 -45 24 -87 24 -133 0 -65 -2 -71 -34 -103 -22
-22 -44 -34 -62 -35 -107 -4 -171 21 -208 79 -32 52 -72 66 -145 52 -88 -17
-107 -13 -151 26 -47 43 -51 73 -19 136 25 49 112 144 150 164 46 23 59 43 59
88 0 47 -22 76 -58 76 -11 0 -49 -6 -84 -14 -35 -8 -101 -17 -148 -21 -71 -5
-96 -3 -150 14 -86 27 -135 26 -185 -4 -22 -14 -47 -25 -56 -25 -26 0 -69 -40
-69 -64 0 -69 77 -87 166 -40 l49 26 49 -18 c31 -11 80 -18 133 -18 45 -1 83
-4 83 -7 0 -4 -9 -18 -20 -32 -40 -51 -73 -139 -74 -197 -1 -91 61 -175 161
-216 26 -11 60 -15 117 -12 78 3 82 3 105 -24 32 -39 96 -74 161 -91 l55 -14
16 -59 c21 -80 39 -112 94 -165 47 -46 64 -87 65 -155 0 -40 34 -84 65 -84 13
0 32 11 44 25 16 21 19 36 14 83 -8 98 -31 152 -90 214 -36 37 -59 72 -68 102
l-14 45 54 30 c85 48 125 125 125 240 -1 73 -13 123 -57 234 -23 59 -37 110
-37 142 l-1 49 135 43 c74 23 196 61 270 83 693 212 897 311 1004 493 47 80
64 165 72 358 l6 164 -32 90 c-35 99 -74 180 -98 208 -20 23 -74 22 -95 -1
-22 -25 -21 -54 3 -94 24 -39 25 -58 5 -58 -8 0 -23 21 -34 46 -49 110 -144
184 -238 184 -42 0 -53 4 -58 19 -3 11 -17 35 -30 54 -13 20 -25 50 -27 69 -2
28 0 32 17 30 39 -7 117 -54 170 -102 60 -54 84 -61 115 -30 36 36 26 71 -38
132 -104 100 -205 137 -392 144 -110 4 -132 2 -185 -16 -33 -12 -87 -23 -121
-24 -37 -1 -77 -11 -106 -24 l-45 -22 -58 26 c-50 23 -67 26 -129 22 -74 -5
-147 -33 -164 -64 -15 -27 -39 -9 -47 35 -3 21 -20 60 -36 85 -16 26 -34 68
-40 94 -13 53 -53 137 -78 166 -49 55 -166 76 -195 34z m1165 -448 c27 -15 24
-37 -6 -42 -18 -4 -29 1 -40 18 -8 13 -15 26 -15 29 0 9 40 6 61 -5z m-513
-50 c22 -14 32 -27 32 -45 0 -21 -5 -25 -29 -25 -16 0 -42 -3 -59 -6 -28 -6
-32 -3 -50 37 -10 24 -17 47 -15 52 8 15 89 7 121 -13z m292 0 c40 -21 83 -69
95 -108 3 -12 17 -30 31 -38 22 -15 28 -14 78 6 67 28 100 22 115 -21 6 -18
11 -47 11 -65 0 -41 -21 -54 -85 -54 -25 0 -54 -4 -64 -10 -26 -13 -45 -65
-37 -100 5 -26 3 -30 -17 -29 -59 3 -68 11 -71 64 -5 83 -51 145 -124 164 -20
6 -28 14 -30 37 -2 16 -10 51 -19 78 l-16 50 27 23 c33 28 55 29 106 3z m-531
-74 c7 -8 14 -31 17 -53 14 -99 51 -125 140 -98 68 21 77 19 48 -10 -31 -31
-54 -84 -54 -124 0 -26 -7 -34 -60 -62 -34 -18 -78 -50 -100 -71 -79 -79 -197
-78 -230 1 -9 24 -9 35 4 60 16 30 27 40 95 84 49 32 54 55 25 118 -17 35 -24
66 -22 94 3 35 8 42 38 57 42 22 83 23 99 4z m1081 -208 c39 -27 79 -99 80
-143 0 -17 7 -41 16 -53 13 -19 23 -22 81 -21 58 1 69 -1 85 -21 11 -13 16
-30 13 -37 -3 -8 -5 -25 -5 -38 0 -14 -14 -40 -31 -60 -45 -51 -90 -49 -155 5
-29 24 -73 48 -109 59 l-59 18 -15 54 c-26 97 -10 242 28 252 31 9 38 7 71
-15z m-661 -39 l32 -11 -7 -78 c-6 -75 -6 -77 21 -98 15 -12 43 -24 64 -27
101 -17 106 -19 109 -52 5 -50 -20 -66 -88 -59 -47 5 -59 4 -72 -11 -24 -27
-30 -57 -18 -89 15 -38 5 -70 -26 -91 l-26 -17 -45 52 c-61 71 -86 82 -179 82
-66 0 -81 3 -101 22 -63 59 8 155 127 174 66 11 83 34 74 100 -5 41 -3 60 10
78 21 34 72 43 125 25z m431 -218 c5 -21 7 -59 4 -85 -9 -59 10 -81 74 -91 54
-8 92 -29 92 -51 0 -8 -10 -38 -21 -65 -25 -58 -43 -62 -104 -24 -78 48 -131
21 -169 -83 -10 -29 -22 -54 -26 -57 -18 -11 -40 9 -50 46 -6 23 -22 46 -39
59 -27 18 -28 23 -19 53 6 17 12 37 14 43 1 6 17 14 35 18 48 9 93 48 113 98
10 23 29 66 42 94 13 28 24 58 24 67 0 31 19 17 30 -22z m520 -323 c-17 -84
-24 -89 -61 -45 -17 20 -45 45 -62 54 l-32 17 63 13 c35 7 71 17 80 22 23 13
26 1 12 -61z m-176 -117 c9 -8 16 -28 16 -46 0 -42 -40 -78 -106 -94 -26 -7
-60 -23 -76 -36 -26 -22 -84 -45 -115 -45 -6 0 -27 23 -47 50 -20 28 -43 53
-50 56 -10 4 -7 16 12 53 l26 48 33 -13 c59 -25 138 -11 173 31 11 13 25 16
67 13 28 -3 59 -10 67 -17z"/>
<path d="M1270 3324 c-22 -25 -16 -75 10 -96 58 -47 126 24 90 93 -13 24 -81
27 -100 3z"/>
<path d="M652 3109 c-53 -20 -108 -126 -122 -233 -11 -88 7 -186 45 -252 14
-24 32 -79 41 -126 28 -153 80 -225 142 -196 35 17 40 60 13 108 -11 20 -25
70 -31 111 -7 46 -24 101 -46 145 -58 120 -57 223 6 315 31 46 39 99 18 116
-22 17 -42 21 -66 12z"/>
<path d="M724 2121 c-81 -49 -104 -129 -80 -269 20 -116 20 -173 0 -220 -50
-120 -72 -352 -39 -416 12 -22 13 -32 3 -43 -8 -10 -13 -63 -14 -152 -2 -137
-3 -137 -32 -169 -37 -39 -46 -82 -31 -149 10 -44 9 -75 -6 -177 -30 -213 -13
-296 61 -296 49 0 70 34 53 89 -10 35 -9 61 6 160 12 80 16 146 13 204 -5 67
-3 87 8 91 8 3 23 20 34 38 18 29 20 51 20 186 0 88 -4 162 -10 173 -6 11 -7
25 -3 32 4 6 8 66 8 132 1 108 4 129 33 214 43 125 47 160 28 262 -23 125 -21
173 7 196 54 42 55 103 2 123 -32 12 -24 13 -61 -9z"/>
<path d="M1815 563 c-127 -28 -195 -76 -259 -182 -20 -32 -67 -87 -106 -123
-38 -36 -70 -72 -70 -80 0 -29 40 -68 69 -68 37 0 151 104 199 180 19 30 49
70 66 88 80 85 306 83 389 -3 18 -19 53 -71 76 -117 51 -96 104 -173 127 -182
77 -29 126 47 70 107 -14 15 -50 74 -82 131 -58 106 -122 184 -174 211 -67 35
-230 55 -305 38z"/>
<path d="M2577 186 c-81 -18 -112 -43 -112 -92 0 -31 5 -41 26 -53 24 -14 31
-13 70 5 47 21 90 22 259 9 90 -7 111 -5 138 9 58 30 67 89 18 121 -21 14 -28
14 -59 2 -30 -13 -49 -13 -143 -1 -128 16 -123 16 -197 0z"/>
<path d="M715 182 c-49 -10 -59 -69 -19 -109 25 -25 29 -25 107 -20 76 5 83 4
135 -25 54 -31 54 -31 166 -25 174 10 239 43 222 112 -9 37 -48 52 -89 36 -18
-7 -75 -15 -127 -18 -94 -5 -96 -5 -145 26 -52 33 -98 39 -152 21 -18 -7 -39
-7 -54 -2 -13 5 -33 7 -44 4z"/>
</g>
</svg>
