<?xml version="1.0" standalone="no"?>
<!DOCTYPE svg PUBLIC "-//W3C//DTD SVG 20010904//EN"
 "http://www.w3.org/TR/2001/REC-SVG-20010904/DTD/svg10.dtd">
<svg version="1.0" xmlns="http://www.w3.org/2000/svg"
 width="430.000000pt" height="359.000000pt" viewBox="0 0 430.000000 359.000000"
 preserveAspectRatio="xMidYMid meet">

<g transform="translate(0.000000,359.000000) scale(0.100000,-0.100000)"
fill="#000000" stroke="none">
<path d="M2905 3567 c-57 -19 -84 -34 -136 -78 -26 -21 -71 -48 -100 -60 -107
-41 -148 -93 -115 -144 21 -32 59 -33 100 -2 17 13 52 32 77 41 25 10 68 35
95 56 73 59 101 72 165 77 76 7 138 -11 189 -54 72 -62 88 -128 50 -203 -25
-50 -25 -79 1 -140 19 -45 20 -50 5 -78 -30 -58 -123 -112 -193 -112 -20 0
-63 7 -95 16 -69 20 -104 10 -114 -31 -17 -67 69 -107 220 -104 l89 2 14 -54
c8 -30 32 -92 54 -137 22 -46 39 -85 37 -87 -2 -2 -43 -20 -93 -40 -49 -21
-111 -48 -137 -61 -58 -29 -58 -29 -58 0 0 33 -17 76 -39 101 -14 15 -20 42
-24 107 -3 66 -10 97 -28 129 -40 72 -96 83 -129 26 -13 -23 -12 -30 8 -70 17
-34 22 -62 22 -123 0 -79 3 -89 52 -156 10 -13 9 -28 -5 -71 -32 -100 -16
-157 44 -157 13 0 98 37 189 83 261 131 410 169 459 115 39 -41 54 -110 46
-209 l-7 -89 -72 -83 c-40 -45 -154 -161 -254 -258 -156 -150 -182 -180 -182
-205 0 -38 16 -54 56 -54 27 0 55 23 200 159 271 256 388 399 383 469 -5 67
-6 66 99 90 252 57 414 158 487 305 34 67 35 74 35 180 0 128 -13 166 -81 235
-82 83 -206 121 -329 101 -63 -10 -66 -9 -79 13 -35 55 -119 126 -177 148 -62
24 -189 33 -247 17 -28 -8 -29 -7 -22 25 13 56 6 127 -16 178 -26 60 -111 143
-176 172 -59 27 -207 35 -268 15z m666 -523 c87 -26 144 -101 163 -216 18
-107 133 -109 139 -2 3 38 4 39 48 48 102 20 224 -50 249 -144 47 -175 -83
-329 -340 -403 -127 -36 -150 -39 -150 -21 0 32 -52 124 -90 157 -43 40 -92
57 -161 57 l-46 0 -47 94 c-26 52 -51 119 -56 148 -8 50 -7 55 20 83 38 40 71
106 77 154 5 35 9 41 42 49 54 15 92 14 152 -4z"/>
<path d="M269 3535 c-114 -36 -190 -120 -209 -230 -6 -33 -20 -89 -32 -124
-16 -49 -19 -77 -14 -120 13 -115 110 -267 199 -313 58 -29 160 -48 265 -48
112 0 132 8 132 55 0 55 -19 65 -124 65 -99 0 -196 20 -236 48 -38 28 -88 108
-106 169 -15 52 -15 58 4 121 11 37 26 94 32 127 15 70 46 105 117 129 52 18
119 21 128 6 3 -5 36 -10 72 -10 84 0 126 -20 170 -82 19 -26 42 -52 50 -56
24 -14 63 -2 80 25 15 22 15 27 1 56 -24 50 -96 126 -142 149 -68 36 -313 56
-387 33z"/>
<path d="M1755 3516 c-33 -14 -85 -69 -85 -89 0 -7 -3 -22 -6 -34 -7 -27 27
-63 60 -63 15 0 33 11 45 28 12 15 26 33 31 40 19 22 56 13 88 -23 51 -56 76
-57 157 -6 18 12 28 8 85 -28 35 -23 88 -49 117 -57 38 -11 60 -25 79 -49 14
-19 34 -37 45 -40 25 -8 58 11 70 42 20 54 -60 142 -148 161 -24 6 -66 25 -95
44 -29 20 -63 40 -75 47 -32 16 -105 14 -131 -5 -22 -15 -25 -15 -45 4 -45 42
-131 55 -192 28z"/>
<path d="M1277 3496 c-26 -7 -58 -22 -70 -33 -35 -32 -62 -43 -109 -43 -56 -1
-114 -28 -160 -76 -50 -53 -63 -90 -43 -120 15 -23 31 -29 65 -25 8 1 33 23
56 48 38 43 44 47 107 54 60 7 82 16 180 72 32 18 85 19 219 1 42 -5 48 -4 64
21 16 24 16 30 3 53 -8 14 -32 31 -54 39 -57 21 -200 26 -258 9z"/>
<path d="M1638 2905 c-49 -28 -63 -80 -29 -112 28 -26 35 -66 21 -122 -16 -67
-54 -102 -119 -109 -47 -4 -52 -2 -84 32 -40 41 -54 44 -91 15 -32 -25 -33
-56 -3 -99 61 -91 227 -100 338 -19 13 10 23 8 48 -10 l32 -23 -46 -49 c-62
-66 -115 -190 -115 -271 0 -24 -6 -28 -55 -43 -30 -8 -71 -25 -90 -36 -23 -14
-65 -24 -118 -30 -133 -14 -194 -29 -218 -55 -26 -28 -20 -66 15 -89 21 -14
30 -14 83 -2 32 8 94 17 138 20 66 5 96 13 160 44 68 32 89 37 151 38 58 0 76
-4 94 -20 37 -34 44 -56 46 -160 3 -134 -16 -205 -65 -246 -81 -66 -284 -153
-511 -219 -147 -42 -150 -43 -150 -84 0 -39 26 -66 62 -66 90 0 489 146 608
222 52 33 61 35 170 41 349 21 597 145 707 354 73 137 64 266 -24 364 -50 55
-123 91 -195 94 l-59 4 -30 61 c-42 83 -107 131 -227 166 -10 3 -7 12 12 34
48 58 43 133 -9 146 -36 9 -49 1 -82 -48 -16 -23 -40 -48 -53 -55 -30 -15
-114 -17 -141 -3 -31 17 -49 64 -49 132 0 54 4 66 25 87 54 51 15 121 -72 128
-31 2 -58 -2 -75 -12z m402 -540 c97 -13 170 -89 170 -175 0 -39 33 -80 64
-80 12 0 42 7 68 14 78 24 149 -11 177 -87 43 -114 -61 -279 -225 -357 -80
-37 -223 -76 -318 -86 l-69 -7 8 24 c4 13 9 88 11 167 4 129 2 148 -17 193
-26 60 -92 121 -148 138 -38 11 -41 14 -35 39 20 96 64 171 115 198 35 18 105
33 134 28 11 -1 40 -6 65 -9z"/>
<path d="M1296 2884 c-17 -16 -21 -61 -8 -81 13 -21 56 -32 78 -20 26 14 34
27 34 58 0 50 -69 79 -104 43z"/>
<path d="M2020 2885 c-17 -21 -15 -74 3 -93 21 -20 63 -18 87 3 41 37 12 105
-44 105 -19 0 -39 -7 -46 -15z"/>
<path d="M598 2628 c-29 -10 -30 -13 -32 -90 -1 -36 -9 -56 -34 -90 -74 -98
-88 -167 -52 -268 11 -30 19 -78 20 -106 0 -86 88 -194 156 -194 38 0 54 16
54 55 0 23 -11 41 -46 75 l-46 44 7 57 c6 50 4 61 -17 89 -35 47 -32 107 8
156 52 65 67 103 68 175 1 89 -24 117 -86 97z"/>
<path d="M662 1837 c-12 -6 -34 -35 -50 -66 -25 -53 -27 -65 -30 -209 -2 -96
1 -160 8 -173 9 -15 7 -32 -6 -71 -12 -38 -15 -67 -10 -114 5 -49 3 -71 -9
-95 -39 -74 -19 -201 37 -242 23 -17 32 -19 52 -9 35 15 42 52 21 106 -17 44
-17 47 4 103 16 44 21 76 19 134 -3 68 0 79 25 115 33 49 34 78 3 107 -23 22
-24 27 -22 142 2 103 6 127 26 167 19 38 22 54 14 75 -10 31 -48 45 -82 30z"/>
<path d="M3000 1388 c-27 -28 -64 -100 -80 -155 -19 -63 -6 -106 51 -169 31
-35 49 -63 49 -79 0 -14 11 -48 25 -75 50 -99 19 -236 -92 -402 -46 -71 -46
-71 -55 -187 -6 -72 -15 -129 -26 -151 l-17 -35 -310 0 c-298 0 -312 1 -358
22 -26 12 -50 28 -53 36 -3 8 9 37 27 65 41 67 50 159 20 212 -54 95 -55 98
-43 124 6 14 31 39 54 55 67 46 78 59 78 91 0 21 -8 35 -25 46 -40 26 -95 5
-165 -64 -61 -60 -88 -119 -76 -168 8 -29 5 -29 -42 -5 -51 26 -146 44 -184
35 -18 -3 -48 -17 -68 -29 -24 -16 -56 -24 -107 -28 -103 -8 -171 -43 -263
-137 -41 -41 -84 -92 -95 -113 -19 -36 -19 -37 1 -64 29 -39 68 -42 97 -7 119
145 188 194 278 194 60 1 120 19 149 45 28 25 99 15 150 -20 35 -24 44 -26 65
-17 13 6 27 23 31 37 8 33 14 32 43 -10 28 -42 24 -79 -15 -131 -34 -44 -43
-117 -21 -161 24 -45 78 -88 144 -114 56 -23 67 -23 378 -24 384 0 379 -1 432
105 28 56 34 79 39 170 6 97 9 109 39 156 18 28 47 79 64 113 l32 62 37 -8
c130 -28 257 35 343 168 72 113 70 208 -7 279 -107 98 -205 104 -329 20 -43
-28 -57 -25 -83 20 -12 22 -36 50 -52 62 -17 12 -30 27 -30 32 0 6 18 46 40
89 34 67 39 81 29 100 -23 44 -66 50 -99 15z m413 -408 c58 -37 61 -63 14
-140 -40 -68 -112 -120 -166 -120 -58 0 -63 9 -65 96 -1 44 -5 86 -9 94 -5 11
13 25 75 58 45 23 87 42 93 42 6 0 32 -13 58 -30z"/>
<path d="M555 754 c-78 -50 -165 -132 -197 -183 -29 -46 -47 -140 -48 -242 0
-148 44 -225 108 -188 30 16 31 27 16 158 -4 39 -2 91 6 132 15 85 55 135 174
213 46 30 86 62 89 71 14 34 -25 85 -65 85 -8 0 -45 -20 -83 -46z"/>
<path d="M1066 243 c-3 -4 -57 -10 -119 -14 -75 -4 -124 -13 -149 -25 -32 -15
-43 -16 -76 -6 -22 7 -64 12 -95 12 -45 0 -62 -5 -84 -24 l-28 -24 18 -36 c15
-33 20 -36 58 -36 22 0 70 -8 105 -17 62 -17 67 -17 112 1 26 10 92 22 148 27
108 8 179 30 194 60 14 24 12 63 -2 77 -13 13 -70 16 -82 5z"/>
</g>
</svg>
