<?xml version="1.0" standalone="no"?>
<!DOCTYPE svg PUBLIC "-//W3C//DTD SVG 20010904//EN"
 "http://www.w3.org/TR/2001/REC-SVG-20010904/DTD/svg10.dtd">
<svg version="1.0" xmlns="http://www.w3.org/2000/svg"
 width="423.000000pt" height="331.000000pt" viewBox="0 0 423.000000 331.000000"
 preserveAspectRatio="xMidYMid meet">

<g transform="translate(0.000000,331.000000) scale(0.100000,-0.100000)"
fill="#000000" stroke="none">
<path d="M2263 3261 c-33 -21 -64 -44 -68 -50 -3 -7 -43 -30 -88 -52 -45 -22
-92 -50 -104 -61 -29 -27 -99 -129 -108 -157 -10 -34 19 -71 56 -71 33 0 56
20 106 93 26 37 49 55 114 88 113 56 229 152 229 189 0 25 -34 60 -58 60 -11
0 -46 -18 -79 -39z"/>
<path d="M1137 3202 c-22 -25 -21 -65 2 -86 19 -17 148 -46 209 -46 31 0 41
-6 59 -35 13 -19 40 -43 60 -54 21 -10 71 -53 110 -95 77 -80 99 -90 141 -60
15 10 22 25 22 47 0 26 -14 47 -78 113 -42 44 -92 87 -110 95 -18 8 -44 31
-58 52 -31 47 -71 64 -149 65 -33 1 -80 5 -105 11 -64 15 -85 13 -103 -7z"/>
<path d="M2650 3139 c-105 -53 -125 -69 -230 -196 -74 -88 -79 -129 -20 -151
40 -15 62 0 141 97 70 87 79 94 180 146 124 64 144 90 99 135 -30 30 -58 25
-170 -31z"/>
<path d="M595 3106 c-13 -10 -20 -29 -22 -72 -5 -75 16 -117 77 -151 69 -39
105 -70 151 -129 43 -56 71 -71 109 -59 35 11 45 47 24 90 -24 51 -138 164
-197 195 -44 24 -47 27 -47 66 0 63 -48 94 -95 60z"/>
<path d="M2817 2872 c-26 -23 -67 -46 -103 -56 -70 -22 -104 -50 -104 -86 0
-30 27 -60 55 -60 18 0 141 42 178 61 12 6 34 23 49 37 26 24 29 24 75 11 26
-7 57 -12 68 -10 47 7 70 57 43 94 -19 25 -93 47 -159 47 -53 0 -62 -3 -102
-38z"/>
<path d="M312 2798 c-7 -7 -12 -26 -12 -44 0 -27 9 -40 58 -78 88 -71 223
-136 283 -136 54 0 69 15 69 69 0 31 -22 51 -57 51 -28 0 -141 57 -209 105
-64 46 -108 57 -132 33z"/>
<path d="M2965 2534 c-10 -10 -15 -29 -13 -48 3 -27 11 -35 63 -61 98 -48 133
-92 193 -237 28 -70 52 -137 52 -149 0 -25 -81 -109 -105 -109 -8 0 -19 10
-26 23 -6 12 -24 36 -40 52 -15 17 -36 52 -46 80 -21 58 -52 79 -92 64 -14 -6
-29 -16 -33 -22 -23 -37 11 -143 64 -200 29 -32 38 -51 44 -93 7 -59 -2 -141
-21 -188 -24 -62 21 -118 79 -97 20 8 29 24 45 77 12 36 21 81 21 99 0 52 8
63 71 96 72 39 130 100 154 163 23 59 14 102 -51 254 -73 172 -105 214 -208
276 -66 40 -123 47 -151 20z"/>
<path d="M1693 2411 c-51 -32 -54 -114 -3 -141 18 -10 20 -20 20 -125 l0 -115
-87 -67 c-114 -89 -123 -98 -123 -128 0 -31 33 -65 63 -65 14 0 65 32 123 75
54 41 106 75 115 75 23 0 85 -29 146 -68 30 -19 62 -32 74 -30 32 4 63 50 55
81 -7 29 -94 90 -176 124 l-55 22 -3 109 c-3 108 -2 109 23 120 21 10 25 18
25 56 0 37 -5 48 -31 70 -39 33 -117 36 -166 7z"/>
<path d="M337 2409 c-10 -6 -35 -8 -56 -4 -57 9 -120 -11 -158 -52 -36 -37
-64 -121 -102 -298 -35 -165 -25 -243 38 -306 88 -89 266 -71 359 36 37 41 40
67 12 95 -28 28 -64 25 -102 -9 -48 -41 -71 -51 -121 -51 -67 0 -80 21 -74
112 5 89 39 242 66 304 l21 46 62 -7 c55 -6 69 -3 108 18 55 29 71 64 46 101
-18 28 -65 35 -99 15z"/>
<path d="M2126 2298 c-26 -36 -19 -63 24 -102 48 -43 90 -48 114 -14 26 36 19
67 -20 104 -44 42 -94 47 -118 12z"/>
<path d="M1365 2269 c-29 -26 -35 -38 -33 -62 4 -37 46 -72 76 -63 39 13 82
62 82 93 0 66 -67 82 -125 32z"/>
<path d="M582 2067 c-15 -16 -22 -36 -22 -65 0 -52 -20 -101 -60 -150 -26 -31
-30 -45 -30 -93 0 -31 -7 -73 -15 -92 -11 -26 -15 -72 -15 -157 0 -107 2 -122
20 -140 25 -25 62 -26 84 -1 13 14 18 44 22 132 3 70 11 130 20 156 10 24 14
55 11 71 -5 22 1 37 24 65 43 52 61 102 66 188 5 71 4 77 -18 93 -33 22 -62
20 -87 -7z"/>
<path d="M655 1533 c-42 -43 -50 -69 -40 -126 9 -55 9 -73 0 -129 -9 -58 11
-98 51 -98 36 0 64 17 64 40 0 11 7 39 15 64 12 35 13 54 4 95 -10 46 -9 53
10 77 26 34 27 68 1 94 -30 30 -64 25 -105 -17z"/>
<path d="M2760 1550 c-27 -27 -25 -59 5 -100 14 -19 25 -41 25 -49 0 -50 25
-146 44 -168 43 -50 126 -16 112 47 -3 14 -12 57 -19 95 -21 105 -35 142 -68
170 -37 30 -72 32 -99 5z"/>
<path d="M3216 1497 c-21 -16 -24 -60 -6 -82 7 -9 35 -25 61 -36 76 -33 81
-44 89 -170 l6 -111 37 -34 c22 -22 37 -45 37 -59 0 -13 20 -53 45 -89 55 -81
65 -132 74 -381 l6 -179 27 -16 c26 -14 31 -13 79 14 45 25 59 28 108 23 54
-5 152 -44 166 -67 4 -6 38 -27 78 -46 78 -40 77 -47 -10 -57 -29 -3 -67 -14
-85 -24 -26 -14 -57 -18 -144 -18 -123 0 -144 -8 -144 -56 0 -16 9 -38 21 -50
19 -19 30 -20 147 -17 94 2 136 7 162 20 19 9 58 20 85 23 130 17 175 51 175
131 0 36 -6 51 -35 82 -19 22 -63 54 -97 72 -35 19 -80 46 -102 62 -57 41
-142 69 -228 75 l-78 6 0 52 c0 49 -23 249 -36 307 -3 16 -25 56 -48 90 -24
35 -46 80 -50 101 -4 22 -22 54 -42 76 -33 37 -34 42 -34 117 0 55 -6 91 -19
119 -42 93 -187 164 -245 122z"/>
<path d="M796 1104 c-19 -18 -20 -69 -5 -147 10 -48 9 -66 -5 -109 -19 -61
-12 -98 30 -161 28 -43 35 -83 52 -323 10 -127 32 -186 84 -220 65 -43 144
-37 166 11 15 33 0 73 -30 79 -93 19 -88 12 -95 160 -2 61 -9 118 -14 127 -5
10 -9 45 -9 78 0 68 -10 100 -47 154 -26 37 -26 39 -10 73 22 45 21 70 -3 179
-12 56 -26 94 -36 102 -24 18 -59 16 -78 -3z"/>
<path d="M1050 960 c-45 -45 -15 -131 67 -191 29 -22 53 -43 53 -48 0 -16 62
-86 113 -129 108 -90 216 -120 251 -70 34 48 13 85 -59 106 -56 16 -153 97
-198 165 -21 31 -56 68 -77 82 -22 14 -40 33 -40 43 0 55 -70 82 -110 42z"/>
<path d="M2160 931 c-24 -12 -44 -36 -63 -72 l-28 -54 16 -80 c8 -44 18 -118
21 -166 l7 -85 -42 -55 c-46 -60 -55 -95 -49 -173 13 -155 183 -295 228 -187
16 39 7 61 -36 89 -40 26 -79 101 -70 136 3 12 23 45 45 75 65 87 67 100 41
283 l-23 159 26 27 c35 36 35 74 1 101 -32 25 -31 25 -74 2z"/>
<path d="M2767 697 c-52 -31 -77 -72 -77 -125 0 -24 -8 -72 -17 -107 -15 -58
-15 -65 -1 -87 16 -23 15 -25 -13 -35 -23 -9 -30 -19 -35 -52 -4 -27 -15 -49
-31 -61 -28 -22 -105 -40 -171 -40 -27 0 -57 -7 -70 -16 -29 -20 -29 -66 1
-95 20 -19 30 -21 97 -15 41 3 98 10 125 17 46 10 55 9 93 -10 24 -12 72 -25
108 -28 58 -5 67 -4 89 17 53 50 20 110 -61 110 -63 0 -75 7 -63 37 14 38 11
104 -6 124 -15 15 -14 17 9 23 14 3 32 19 40 34 16 32 36 121 36 163 0 19 6
32 18 36 54 19 72 88 30 117 -31 22 -56 20 -101 -7z"/>
<path d="M1417 219 c-21 -15 -34 -19 -62 -13 -39 7 -108 -9 -139 -31 -24 -18
-24 -70 1 -97 13 -15 25 -18 48 -13 16 3 59 8 95 9 80 4 109 15 143 56 31 37
34 70 9 93 -25 23 -64 21 -95 -4z"/>
<path d="M3108 173 c-29 -4 -68 -45 -68 -70 0 -8 11 -25 26 -39 21 -22 31 -25
60 -20 26 5 49 0 94 -20 52 -23 69 -26 123 -21 126 12 191 26 204 43 19 26 16
68 -5 87 -22 20 -51 21 -153 5 -71 -10 -81 -9 -130 10 -60 23 -110 32 -151 25z"/>
</g>
</svg>
