<?xml version="1.0" standalone="no"?>
<!DOCTYPE svg PUBLIC "-//W3C//DTD SVG 20010904//EN"
 "http://www.w3.org/TR/2001/REC-SVG-20010904/DTD/svg10.dtd">
<svg version="1.0" xmlns="http://www.w3.org/2000/svg"
 width="664.000000pt" height="364.000000pt" viewBox="0 0 664.000000 364.000000"
 preserveAspectRatio="xMidYMid meet">

<g transform="translate(0.000000,364.000000) scale(0.100000,-0.100000)"
fill="#000000" stroke="none">
<path d="M1613 3630 c-59 -9 -142 -46 -156 -71 -15 -24 0 -67 28 -85 24 -16
29 -15 81 5 65 25 123 26 310 7 105 -11 141 -18 185 -40 58 -29 104 -62 144
-102 47 -47 115 -21 115 43 0 36 -48 89 -126 139 -94 60 -146 75 -339 95 -99
10 -182 18 -185 18 -3 -1 -29 -5 -57 -9z"/>
<path d="M4210 3624 c-152 -31 -255 -70 -359 -138 -137 -89 -231 -195 -366
-415 -53 -87 -82 -123 -122 -152 -120 -89 -178 -223 -178 -409 1 -151 23 -212
134 -361 l25 -32 -25 7 c-13 3 -51 9 -84 12 -49 5 -70 2 -111 -15 l-50 -22
-46 45 c-45 43 -96 66 -145 66 -27 0 -28 13 -7 71 24 68 28 208 10 335 -19
137 -23 146 -98 264 -141 220 -176 267 -277 371 -90 93 -111 109 -137 109 -38
0 -64 -27 -64 -66 0 -24 19 -49 96 -129 105 -109 175 -197 206 -260 12 -22 42
-72 69 -111 55 -82 64 -111 79 -254 10 -88 9 -117 -4 -179 -25 -118 -91 -209
-195 -268 -26 -15 -54 -33 -63 -41 -24 -20 -23 -74 0 -95 39 -35 106 -12 215
74 54 42 117 58 175 43 137 -35 93 -310 -74 -463 -52 -47 -165 -121 -187 -121
-2 0 -7 37 -9 82 -4 69 -8 84 -28 100 -29 23 -65 23 -89 -1 -16 -16 -19 -41
-25 -187 -3 -93 -1 -288 5 -434 6 -146 13 -350 16 -455 5 -215 11 -235 67
-235 37 0 61 21 71 62 4 14 1 124 -5 245 -19 345 -26 664 -15 673 6 4 28 13
50 20 94 30 226 123 302 214 l47 56 51 -48 c27 -27 66 -58 85 -70 46 -27 150
-58 225 -67 73 -9 91 -17 109 -53 23 -45 25 -77 46 -657 23 -619 23 -621 88
-675 50 -41 119 -60 219 -60 97 0 134 13 193 67 85 76 108 179 47 213 -24 13
-30 13 -54 0 -14 -8 -29 -22 -33 -30 -41 -90 -65 -109 -141 -116 -36 -3 -70 1
-104 13 -48 17 -50 20 -57 63 -5 25 -16 293 -27 595 -21 600 -23 616 -83 689
-40 49 -70 63 -186 85 -126 25 -193 53 -236 102 -66 73 -75 208 -18 278 27 33
33 36 83 35 30 0 98 -13 151 -29 97 -29 98 -29 104 -64 18 -98 106 -200 216
-251 120 -56 233 -74 483 -74 361 -1 631 51 892 174 117 55 177 94 250 163 45
42 56 48 81 42 29 -6 30 -9 51 -123 12 -64 40 -178 62 -252 89 -305 91 -429
10 -543 -36 -49 -85 -77 -137 -77 -97 0 -182 107 -224 282 -27 114 -65 144
-124 97 -31 -24 -32 -43 -10 -142 35 -154 119 -284 224 -345 39 -23 56 -27
125 -27 44 0 89 3 101 8 21 7 21 5 27 -243 6 -224 5 -255 -11 -302 -16 -47
-23 -56 -67 -78 -44 -22 -63 -25 -160 -25 -128 0 -150 9 -255 100 -85 74 -160
118 -262 151 -75 25 -97 28 -233 28 -120 1 -163 -3 -214 -18 -138 -42 -189
-153 -87 -190 13 -5 33 2 60 22 59 41 109 52 232 52 182 0 283 -37 417 -151
86 -74 137 -104 212 -123 69 -19 144 -20 234 -5 138 22 219 84 256 195 18 54
19 84 16 325 l-3 267 149 6 c228 10 326 24 468 67 71 22 155 42 185 46 52 6
54 5 41 -11 -8 -10 -41 -31 -73 -47 -31 -16 -62 -38 -68 -48 -6 -11 -7 -44 -4
-79 l7 -59 -32 -6 c-17 -4 -54 -2 -82 3 -92 18 -127 13 -160 -19 -17 -17 -29
-40 -29 -55 0 -36 -26 -40 -200 -33 -134 6 -149 5 -164 -11 -22 -25 -20 -75 3
-96 36 -32 283 -48 378 -25 45 12 113 67 113 92 0 9 29 12 104 12 90 0 108 3
132 21 46 34 65 67 71 126 5 54 8 58 54 88 85 55 119 141 84 214 -40 85 -156
93 -375 26 -74 -22 -164 -45 -200 -50 -78 -11 -380 -25 -380 -18 0 3 12 37 27
74 49 125 34 308 -47 568 -34 111 -73 293 -67 310 3 7 28 18 56 25 29 7 78 31
111 53 234 156 271 564 83 896 -193 341 -567 587 -1043 687 -107 23 -156 27
-335 30 -115 2 -221 1 -235 -1z m515 -154 c343 -68 599 -199 810 -414 120
-122 184 -217 229 -343 78 -221 48 -453 -74 -567 -56 -53 -110 -70 -195 -63
-179 14 -282 174 -301 466 -6 87 -10 104 -28 117 -29 20 -70 18 -91 -6 -37
-41 -27 -219 20 -369 l25 -76 -23 -17 c-40 -31 -306 -108 -475 -138 -237 -42
-583 -53 -759 -25 -310 50 -508 202 -542 417 -19 117 23 264 94 329 100 91
135 133 195 233 82 136 174 251 248 311 84 67 221 132 327 155 124 27 380 22
540 -10z m498 -1418 c15 -16 14 -20 -21 -47 -155 -125 -379 -212 -672 -262
-132 -22 -531 -25 -625 -5 -100 22 -158 44 -207 81 -66 48 -105 131 -55 117
12 -4 58 -15 102 -26 348 -85 907 -33 1347 125 110 40 110 40 131 17z"/>
<path d="M3566 2814 c-42 -42 -9 -124 50 -124 55 0 87 86 46 123 -23 21 -76
22 -96 1z"/>
<path d="M4310 2770 c-30 -30 -27 -83 7 -109 45 -36 107 0 105 61 -2 60 -70
90 -112 48z"/>
<path d="M3776 2650 c-67 -21 -88 -81 -41 -118 22 -17 25 -28 25 -81 0 -58 -1
-61 -32 -77 -20 -11 -58 -18 -97 -19 -53 -1 -66 -4 -82 -24 -22 -27 -23 -41
-7 -76 24 -52 145 -57 238 -10 l48 24 67 -34 c91 -46 188 -62 280 -46 143 24
228 118 165 181 -28 28 -71 25 -114 -9 -60 -48 -170 -50 -260 -5 -57 30 -66
43 -66 102 0 46 4 57 26 74 33 26 30 73 -6 99 -30 22 -103 32 -144 19z"/>
<path d="M1124 3536 c-147 -31 -195 -48 -284 -99 -113 -64 -260 -178 -267
-206 -9 -38 17 -75 55 -79 27 -3 49 9 129 68 53 39 125 87 162 107 80 45 252
92 339 93 53 0 67 4 87 25 30 29 32 55 7 85 -26 33 -95 34 -228 6z"/>
<path d="M455 3131 c-45 -27 -77 -69 -141 -183 -68 -121 -81 -162 -95 -293 -5
-55 -19 -131 -31 -170 -38 -130 -22 -243 47 -337 41 -56 124 -114 198 -139 51
-18 52 -19 50 -56 -2 -21 -18 -76 -37 -123 -51 -125 -68 -203 -70 -310 -1 -86
2 -101 28 -154 27 -54 28 -62 18 -110 -6 -28 -13 -67 -16 -87 l-6 -36 -73 -6
c-40 -3 -91 -13 -113 -22 -48 -20 -170 -138 -190 -184 -59 -140 73 -252 297
-253 l87 0 5 -137 c6 -165 20 -210 85 -276 84 -84 183 -119 337 -118 116 0
188 22 258 79 100 81 125 96 191 117 59 18 92 22 201 21 193 -2 290 -31 397
-121 31 -26 49 -34 70 -31 23 4 29 0 37 -23 5 -15 18 -32 28 -37 10 -5 119 -8
243 -8 208 1 229 3 273 23 75 34 95 105 40 140 -21 14 -30 15 -57 4 -66 -27
-97 -30 -299 -33 -188 -3 -207 -1 -207 14 0 24 -92 101 -164 138 -131 66 -397
94 -548 57 -97 -24 -197 -72 -243 -117 -85 -83 -215 -110 -344 -71 -80 24
-135 66 -150 114 -10 32 -21 790 -11 800 3 3 32 -4 65 -16 89 -32 268 -31 343
2 63 29 101 70 147 162 20 38 53 99 75 134 43 71 48 98 24 133 -18 26 -74 30
-98 6 -18 -17 -76 -115 -127 -213 -50 -96 -69 -106 -192 -106 -92 0 -108 3
-160 28 -80 40 -110 82 -115 163 -5 79 19 193 63 294 18 41 36 94 40 117 3 23
12 46 18 51 7 5 43 12 80 15 138 13 252 93 296 210 17 48 21 79 21 187 0 117
-2 132 -20 150 -27 27 -66 25 -95 -5 -24 -23 -25 -30 -25 -140 0 -130 -9 -163
-61 -211 -44 -41 -96 -57 -181 -56 -161 1 -278 57 -324 156 -29 62 -30 89 -4
180 10 39 26 127 34 195 10 82 22 137 37 165 52 101 116 200 142 218 34 24 37
78 7 108 -25 25 -46 25 -85 1z m-15 -2230 l0 -90 -56 -7 c-101 -12 -234 22
-234 61 0 7 30 39 66 69 l65 56 80 0 79 0 0 -89z"/>
<path d="M2256 2718 c-23 -32 -20 -65 9 -93 31 -32 59 -32 92 1 20 20 24 31
19 56 -9 45 -24 58 -67 58 -28 0 -42 -6 -53 -22z"/>
<path d="M1515 2595 c-28 -27 -31 -45 -14 -78 16 -30 28 -37 66 -37 60 0 83
70 38 115 -31 32 -59 32 -90 0z"/>
<path d="M1925 2595 c-16 -9 -33 -22 -37 -28 -14 -21 -8 -58 12 -84 28 -35 28
-126 0 -171 -24 -39 -70 -69 -121 -77 -29 -5 -49 -1 -84 16 -36 18 -51 21 -73
13 -55 -19 -54 -97 1 -138 25 -18 42 -21 130 -21 112 0 160 16 223 76 l30 29
63 -16 c83 -21 143 -8 194 43 61 59 46 133 -27 133 -21 0 -43 -9 -60 -25 -30
-28 -52 -31 -91 -13 -22 10 -25 17 -25 68 0 47 4 60 25 80 32 30 32 70 0 100
-32 30 -116 38 -160 15z"/>
</g>
</svg>
