<?xml version="1.0" standalone="no"?>
<!DOCTYPE svg PUBLIC "-//W3C//DTD SVG 20010904//EN"
 "http://www.w3.org/TR/2001/REC-SVG-20010904/DTD/svg10.dtd">
<svg version="1.0" xmlns="http://www.w3.org/2000/svg"
 width="422.000000pt" height="364.000000pt" viewBox="0 0 422.000000 364.000000"
 preserveAspectRatio="xMidYMid meet">

<g transform="translate(0.000000,364.000000) scale(0.100000,-0.100000)"
fill="#000000" stroke="none">
<path d="M1976 3618 c-52 -14 -136 -95 -136 -131 0 -60 72 -88 113 -44 12 13
34 32 49 41 27 18 30 17 145 -19 92 -29 142 -39 228 -45 120 -7 171 -24 250
-81 73 -53 135 -38 135 31 0 29 -20 50 -93 99 -71 48 -147 70 -276 80 -84 7
-140 18 -201 39 -103 35 -162 44 -214 30z"/>
<path d="M1512 3519 c-62 -11 -228 -57 -257 -72 -11 -6 -48 -32 -83 -59 -35
-26 -71 -48 -80 -48 -9 0 -46 -14 -81 -30 -73 -35 -171 -129 -211 -204 -23
-43 -24 -48 -10 -74 13 -22 23 -27 56 -27 39 0 44 4 90 65 62 81 118 124 191
145 37 11 83 36 128 70 59 45 86 58 166 79 53 15 134 29 179 33 61 5 88 11
102 25 24 24 23 63 -2 88 -22 22 -89 25 -188 9z"/>
<path d="M2995 3331 c-21 -42 -6 -74 49 -106 64 -37 96 -45 236 -55 159 -12
167 -18 197 -129 24 -93 31 -105 121 -216 110 -134 135 -216 87 -274 -32 -37
-83 -54 -159 -54 -50 1 -63 -3 -83 -24 -43 -42 -13 -102 51 -104 164 -7 276
43 326 147 18 36 21 58 18 113 -6 104 -47 179 -204 362 -8 8 -22 50 -33 92
-29 118 -69 169 -151 195 -19 7 -90 16 -158 21 -102 7 -132 13 -174 35 -68 35
-103 34 -123 -3z"/>
<path d="M597 2962 c-69 -62 -97 -81 -139 -93 -64 -17 -110 -68 -177 -197 -42
-81 -83 -142 -132 -197 -120 -135 -156 -242 -125 -365 43 -167 207 -306 377
-318 67 -5 116 2 264 35 81 18 119 35 157 71 32 29 33 27 42 -61 10 -95 42
-139 130 -178 94 -41 146 -25 146 47 0 37 -11 48 -67 64 -67 20 -83 41 -83
108 0 45 -8 73 -35 131 -41 85 -43 122 -14 215 22 74 19 99 -16 122 -29 19
-71 10 -90 -20 -24 -39 -45 -117 -54 -203 -10 -95 -27 -123 -96 -154 -43 -19
-198 -49 -256 -49 -69 0 -130 30 -196 95 -74 74 -99 138 -82 212 13 61 16 65
103 169 47 54 96 127 127 187 59 116 98 162 139 171 36 7 106 53 168 109 50
47 58 95 20 121 -35 25 -65 19 -111 -22z"/>
<path d="M1925 2873 c-29 -6 -62 -34 -70 -61 -5 -18 1 -30 30 -56 l36 -33 -3
-104 -3 -104 -35 -17 c-19 -10 -66 -27 -105 -38 -172 -52 -225 -81 -253 -137
-28 -56 -33 -98 -21 -171 19 -121 73 -182 163 -182 61 0 118 28 200 98 112 95
110 94 266 87 182 -9 243 8 292 83 25 38 24 124 -3 171 -42 75 -156 130 -286
138 l-83 6 0 92 c0 88 1 92 25 105 29 15 43 55 28 79 -23 39 -105 59 -178 44z
m314 -495 c53 -27 72 -51 53 -70 -13 -13 -20 -13 -213 -9 -141 4 -169 -6 -278
-98 -88 -74 -129 -97 -144 -82 -6 6 -12 35 -15 66 -6 72 9 89 102 116 39 11
107 34 151 51 44 17 100 37 125 44 62 18 163 10 219 -18z"/>
<path d="M2287 2852 c-39 -42 -8 -114 48 -114 56 0 83 61 49 110 -19 28 -74
30 -97 4z"/>
<path d="M1466 2768 c-34 -48 -7 -108 48 -108 41 0 66 26 66 68 0 40 -23 62
-65 62 -24 0 -39 -7 -49 -22z"/>
<path d="M3047 2772 c-22 -24 -21 -54 0 -95 9 -18 19 -69 23 -114 6 -78 9 -86
51 -140 42 -54 100 -186 115 -260 3 -16 1 -47 -4 -67 -19 -66 19 -108 82 -92
17 4 29 19 42 51 22 60 15 121 -31 262 -28 85 -48 127 -81 170 -40 52 -44 61
-44 113 0 66 -21 134 -52 167 -26 28 -78 31 -101 5z"/>
<path d="M2310 2023 c-8 -3 -28 -15 -43 -26 -22 -15 -51 -20 -134 -25 -118 -6
-143 -18 -143 -70 0 -62 51 -79 195 -63 73 9 110 18 141 36 24 14 52 25 63 25
24 0 51 36 51 67 0 49 -69 79 -130 56z"/>
<path d="M3206 1858 c-25 -35 -20 -52 32 -115 67 -80 82 -108 142 -263 29 -74
59 -145 67 -157 19 -28 72 -53 115 -53 38 0 78 33 78 64 0 23 -44 66 -68 66
-16 0 -31 28 -77 145 -84 213 -171 335 -239 335 -25 0 -39 -6 -50 -22z"/>
<path d="M1008 1518 c-11 -9 -28 -67 -49 -168 -39 -183 -45 -324 -17 -376 10
-17 22 -61 28 -97 5 -36 20 -87 32 -114 15 -34 20 -66 19 -110 -2 -70 13 -93
58 -93 45 0 65 32 69 109 3 54 -1 80 -21 132 -14 35 -28 86 -32 113 -4 28 -15
72 -26 98 -25 65 -24 96 11 273 33 163 35 196 20 226 -12 22 -67 26 -92 7z"/>
<path d="M3531 1131 c-48 -48 -19 -101 92 -167 67 -39 140 -130 172 -214 28
-73 60 -109 147 -164 63 -40 97 -80 121 -144 32 -82 14 -167 -47 -219 -50 -44
-25 -123 40 -123 30 0 96 66 125 126 20 41 24 64 24 139 0 77 -4 98 -27 148
-39 84 -76 125 -162 182 -68 45 -77 56 -102 113 -36 85 -115 195 -167 232
-150 108 -184 123 -216 91z"/>
<path d="M2707 990 c-37 -29 -61 -99 -53 -152 11 -65 19 -358 10 -358 -3 0
-26 17 -49 38 -23 20 -62 54 -87 74 -31 25 -55 57 -72 94 -48 104 -201 294
-238 294 -8 0 -27 -9 -42 -21 -41 -33 -35 -71 23 -138 70 -82 114 -147 150
-223 28 -59 42 -76 112 -129 94 -72 130 -118 159 -203 23 -70 51 -93 93 -77
39 15 50 37 43 87 -5 39 -3 48 18 67 23 21 24 28 29 202 3 106 1 212 -6 257
-10 68 -9 79 6 96 24 26 21 59 -8 87 -29 30 -54 32 -88 5z"/>
<path d="M3271 894 c-13 -9 -35 -42 -49 -73 -37 -81 -36 -187 2 -295 31 -86
31 -125 -1 -239 -18 -67 -39 -85 -132 -117 -44 -15 -84 -20 -137 -19 -85 2
-114 -14 -114 -63 0 -83 123 -100 298 -42 168 56 227 142 239 345 5 89 3 103
-22 173 -32 88 -31 153 3 227 25 55 20 84 -19 104 -35 19 -39 19 -68 -1z"/>
<path d="M1690 704 c-51 -22 -70 -43 -70 -79 0 -63 52 -80 136 -44 27 11 38
10 77 -5 50 -19 108 -70 134 -119 11 -21 17 -55 17 -97 1 -73 -28 -146 -89
-231 -34 -47 -42 -79 -29 -113 4 -11 19 -16 53 -16 44 0 48 3 85 53 85 116
119 215 114 330 -4 104 -31 161 -109 238 -91 90 -224 124 -319 83z"/>
<path d="M619 487 c-175 -52 -227 -76 -256 -120 -45 -65 -18 -165 64 -237 70
-62 123 -75 294 -75 130 0 149 2 168 19 24 22 27 63 8 91 -12 16 -30 18 -158
19 -130 1 -149 4 -192 25 -52 26 -86 72 -64 88 40 31 275 93 353 93 56 0 68 3
90 26 20 19 24 31 19 52 -10 44 -27 53 -106 57 -65 4 -92 -1 -220 -38z"/>
<path d="M1036 438 c-11 -16 -16 -46 -16 -98 0 -126 51 -205 173 -266 28 -15
69 -38 91 -51 38 -24 43 -25 192 -22 138 4 155 6 173 24 11 11 20 29 21 40 7
73 -10 80 -160 64 l-117 -12 -105 57 c-120 66 -128 76 -135 181 -3 42 -12 77
-21 88 -22 25 -77 22 -96 -5z"/>
<path d="M2220 154 c-96 -21 -131 -68 -87 -120 l24 -28 73 14 c58 11 86 11
141 2 91 -16 128 -15 180 3 56 20 79 42 79 74 0 57 -41 78 -113 57 -46 -13
-61 -13 -127 0 -88 16 -86 16 -170 -2z"/>
<path d="M3374 148 c-51 -41 -12 -118 60 -118 17 0 53 -7 80 -15 35 -11 96
-15 211 -15 148 0 163 2 180 20 22 25 23 65 0 90 -16 18 -27 19 -144 13 -109
-5 -135 -3 -196 15 -103 31 -160 33 -191 10z"/>
</g>
</svg>
