<?xml version="1.0" standalone="no"?>
<!DOCTYPE svg PUBLIC "-//W3C//DTD SVG 20010904//EN"
 "http://www.w3.org/TR/2001/REC-SVG-20010904/DTD/svg10.dtd">
<svg version="1.0" xmlns="http://www.w3.org/2000/svg"
 width="380.000000pt" height="399.000000pt" viewBox="0 0 380.000000 399.000000"
 preserveAspectRatio="xMidYMid meet">

<g transform="translate(0.000000,399.000000) scale(0.100000,-0.100000)"
fill="#000000" stroke="none">
<path d="M1533 3960 c-69 -10 -117 -31 -136 -60 -9 -16 -23 -20 -68 -20 -43 0
-65 -6 -91 -24 -20 -13 -59 -29 -88 -35 -59 -13 -83 -24 -125 -59 -45 -37
-105 -121 -105 -146 0 -31 30 -56 67 -56 25 0 36 7 52 34 12 19 39 50 61 70
37 33 45 36 100 36 54 0 61 2 82 30 20 28 26 30 84 30 59 0 66 3 109 40 42 36
52 40 103 41 125 2 167 -8 224 -56 46 -39 100 -29 112 21 24 94 -188 179 -381
154z"/>
<path d="M2145 3961 c-72 -18 -125 -72 -125 -127 0 -67 83 -85 114 -25 21 39
56 46 113 21 58 -25 103 -25 178 1 56 20 60 20 102 4 54 -21 150 -108 193
-175 37 -57 67 -71 105 -46 63 41 -6 166 -153 277 -106 80 -173 92 -296 52
-44 -14 -51 -14 -75 0 -33 19 -115 29 -156 18z"/>
<path d="M3062 3578 c-39 -48 5 -120 103 -164 34 -16 84 -26 152 -33 81 -7
113 -15 154 -37 67 -37 141 -119 180 -201 26 -55 31 -74 27 -122 -3 -48 -11
-67 -48 -120 -43 -62 -44 -63 -31 -104 29 -94 27 -113 -17 -157 -34 -34 -46
-40 -83 -40 -24 0 -65 7 -91 17 -57 20 -92 9 -102 -32 -16 -65 70 -110 198
-103 92 4 156 40 200 111 35 57 45 106 33 171 -8 45 -6 54 28 121 36 70 37 75
33 161 -5 103 -27 157 -107 264 -91 120 -190 175 -346 191 -113 12 -144 22
-180 59 -31 32 -83 41 -103 18z"/>
<path d="M635 3450 c-71 -66 -75 -67 -191 -73 -104 -5 -174 -37 -239 -109 -62
-69 -121 -194 -133 -283 -5 -38 -20 -97 -32 -130 -19 -51 -21 -75 -18 -155 4
-103 15 -134 70 -196 93 -105 251 -142 368 -85 25 12 73 49 108 82 71 68 78
97 31 131 -34 25 -62 14 -137 -56 -33 -29 -70 -57 -82 -61 -66 -21 -184 35
-220 104 -27 54 -27 143 1 213 12 29 25 83 30 121 11 86 47 163 110 232 58 63
89 75 198 75 91 0 139 21 211 90 53 51 72 86 63 118 -4 18 -41 42 -64 42 -5 0
-38 -27 -74 -60z"/>
<path d="M2069 3379 c-18 -18 -20 -28 -15 -73 10 -71 28 -96 71 -96 26 0 39 6
51 26 15 22 15 32 5 79 -18 80 -68 108 -112 64z"/>
<path d="M1889 3359 c-17 -17 -20 -29 -15 -61 16 -101 58 -139 112 -103 25 16
26 21 21 77 -8 95 -67 138 -118 87z"/>
<path d="M2003 3095 c-57 -24 -71 -89 -28 -129 23 -21 24 -26 15 -80 -18 -111
-72 -158 -201 -176 -48 -7 -78 -16 -86 -27 -19 -25 -16 -68 7 -88 46 -42 236
6 313 79 15 14 30 26 33 26 3 0 24 -15 45 -34 69 -59 165 -68 251 -25 73 37
102 111 56 143 -32 23 -58 20 -88 -9 -35 -34 -91 -43 -125 -21 -34 22 -75 107
-75 154 0 28 7 45 25 62 43 41 29 101 -30 126 -42 17 -71 17 -112 -1z"/>
<path d="M2370 3073 c-50 -64 32 -141 90 -83 39 39 11 110 -44 110 -15 0 -33
-11 -46 -27z"/>
<path d="M2992 3058 c-12 -6 -25 -22 -28 -35 -7 -25 -1 -40 42 -108 22 -36 24
-47 19 -112 -6 -65 -4 -76 20 -116 24 -43 26 -53 28 -195 2 -142 1 -152 -20
-181 -28 -37 -29 -72 -5 -94 49 -45 121 9 143 106 18 82 7 339 -16 392 -12 26
-18 67 -19 120 -1 66 -6 89 -28 131 -27 51 -79 105 -101 103 -7 0 -22 -5 -35
-11z"/>
<path d="M1650 3030 c-39 -39 -11 -110 44 -110 25 0 55 23 57 43 7 73 -54 114
-101 67z"/>
<path d="M759 2853 c-22 -20 -47 -50 -56 -67 -22 -43 -22 -133 2 -176 25 -48
21 -96 -15 -171 -53 -113 -36 -265 36 -329 41 -35 76 -38 105 -9 26 26 19 62
-18 101 -20 21 -27 41 -31 82 -4 46 0 64 28 120 40 82 48 155 25 216 -31 83
-30 94 9 138 43 47 48 92 14 116 -34 24 -54 20 -99 -21z"/>
<path d="M1407 2125 c-64 -24 -95 -53 -129 -122 -28 -58 -33 -79 -36 -163 -4
-96 -4 -97 23 -119 29 -22 57 -21 84 5 9 8 17 47 21 106 11 139 34 171 135
185 55 7 128 -24 148 -64 8 -15 20 -54 28 -86 11 -52 11 -65 -6 -112 -17 -51
-17 -55 -1 -80 14 -22 24 -26 54 -23 54 5 82 57 82 159 0 143 -54 252 -149
301 -46 24 -64 28 -135 27 -44 0 -98 -7 -119 -14z"/>
<path d="M3097 2122 c-22 -24 -22 -65 1 -84 9 -8 44 -22 77 -32 147 -44 304
-152 374 -257 78 -116 106 -291 61 -378 -31 -61 -118 -88 -180 -56 -17 9 -30
11 -30 5 0 -5 -7 -10 -15 -10 -8 0 -17 -11 -21 -25 -3 -14 -10 -23 -14 -20
-16 10 -18 -24 -2 -38 43 -38 84 -49 158 -45 118 8 204 76 235 188 19 67 14
193 -12 275 -35 115 -74 181 -157 264 -87 88 -183 149 -311 197 -98 38 -141
42 -164 16z"/>
<path d="M3000 1910 c-11 -11 -20 -29 -20 -40 0 -22 41 -70 60 -70 15 0 12
-45 -5 -87 -22 -53 -19 -107 11 -163 25 -47 26 -57 23 -169 -3 -96 -7 -123
-21 -138 -24 -26 -23 -68 2 -93 36 -36 84 -18 118 43 14 27 17 59 17 197 0
142 -3 172 -19 208 -19 41 -19 45 -3 90 22 61 21 107 -3 159 -33 73 -117 106
-160 63z"/>
<path d="M778 1783 c-47 -55 -64 -205 -34 -291 60 -168 294 -305 491 -289 102
9 274 46 320 69 92 47 198 181 198 250 0 32 -28 68 -54 68 -35 0 -51 -14 -73
-64 -24 -53 -98 -129 -142 -146 -57 -22 -260 -52 -316 -47 -103 9 -239 87
-289 165 -34 53 -39 128 -14 189 8 19 15 45 15 58 0 48 -71 74 -102 38z"/>
<path d="M675 1350 c-15 -17 -17 -30 -11 -102 4 -46 8 -94 9 -108 2 -21 -8
-30 -58 -57 -33 -17 -96 -44 -140 -59 -70 -24 -94 -27 -192 -25 -130 2 -172
-10 -203 -61 -18 -28 -21 -45 -17 -108 4 -85 20 -123 73 -174 58 -57 116 -71
276 -70 l137 2 5 -37 c3 -20 8 -67 11 -106 13 -143 73 -296 137 -350 36 -30
38 -30 72 -4 36 28 33 64 -9 123 -66 93 -88 205 -83 417 l3 154 39 75 c75 142
76 146 76 212 -1 35 -7 110 -14 167 -10 79 -17 107 -31 118 -27 19 -59 16 -80
-7z m-81 -471 c-14 -34 -28 -83 -31 -110 -7 -58 -9 -59 -160 -59 -154 0 -202
22 -224 103 -17 62 -6 68 130 66 106 -2 123 1 201 29 47 16 90 30 97 31 7 1 2
-22 -13 -60z"/>
<path d="M3103 1023 c-36 -31 -37 -56 -2 -99 30 -37 31 -42 25 -106 -7 -81 6
-125 60 -204 l39 -56 0 -160 c0 -156 1 -160 24 -179 30 -24 53 -24 76 1 15 17
19 42 22 138 6 187 -1 228 -55 318 -45 76 -46 79 -43 155 2 60 -2 88 -17 121
-33 74 -90 105 -129 71z"/>
<path d="M1952 639 c-132 -17 -224 -58 -318 -142 -28 -25 -61 -66 -75 -91 -22
-43 -23 -48 -9 -74 21 -37 72 -43 97 -11 121 151 221 199 412 199 115 0 150
-29 243 -198 47 -84 74 -104 112 -79 42 28 42 52 1 132 -76 147 -159 233 -251
261 -51 15 -113 16 -212 3z"/>
<path d="M1453 231 c-10 -10 -29 -31 -43 -47 -14 -15 -39 -33 -57 -41 -49 -20
-136 -17 -176 7 -69 41 -254 65 -290 38 -26 -21 -31 -61 -10 -87 16 -20 33
-25 111 -32 73 -7 103 -14 149 -40 54 -29 63 -31 139 -27 100 5 176 40 235
107 48 54 57 83 35 116 -20 31 -68 34 -93 6z"/>
<path d="M2496 185 c-34 -34 -28 -83 14 -105 10 -5 59 -20 107 -32 167 -41
535 -26 585 24 27 27 21 79 -12 95 -19 9 -42 8 -100 -2 -41 -8 -138 -14 -215
-14 -116 -1 -157 3 -243 24 -122 29 -116 29 -136 10z"/>
</g>
</svg>
